<?xml version="1.0" standalone="no"?>
<!DOCTYPE svg PUBLIC "-//W3C//DTD SVG 20010904//EN"
 "http://www.w3.org/TR/2001/REC-SVG-20010904/DTD/svg10.dtd">
<svg version="1.0" xmlns="http://www.w3.org/2000/svg"
 width="500.000000pt" height="419.000000pt" viewBox="0 0 500.000000 419.000000"
 preserveAspectRatio="xMidYMid meet">

<g transform="translate(0.000000,419.000000) scale(0.100000,-0.100000)"
fill="#000000" stroke="none">
<path d="M2170 3970 c0 -5 -4 -10 -10 -10 -15 0 -50 -33 -50 -46 0 -7 -5 -14
-12 -16 -12 -4 19 -48 35 -48 12 0 37 -27 37 -39 0 -6 -7 -11 -15 -11 -8 0
-15 -5 -15 -11 0 -22 -29 -38 -76 -41 -42 -3 -49 -6 -52 -25 -2 -13 -8 -23
-13 -23 -5 0 -9 -7 -9 -15 0 -8 5 -15 10 -15 6 0 10 -11 10 -25 0 -23 3 -25
49 -25 51 0 61 9 61 51 0 10 5 19 10 19 6 0 10 9 10 19 0 11 7 26 15 35 8 8
15 19 15 25 0 6 7 11 15 11 12 0 15 -16 15 -80 0 -64 -3 -80 -15 -80 -12 0
-15 -13 -15 -55 0 -42 -3 -55 -15 -55 -8 0 -15 -7 -15 -15 0 -8 -6 -15 -14
-15 -8 0 -17 -6 -20 -12 -5 -10 -7 -10 -12 0 -7 14 -34 16 -34 2 0 -5 7 -10
15 -10 8 0 15 -7 15 -15 0 -20 17 -19 28 0 6 12 14 14 33 6 13 -5 18 -10 12
-10 -7 -1 -13 -14 -13 -30 0 -60 -2 -61 -126 -61 -63 0 -114 -4 -114 -9 0 -4
-28 -11 -62 -14 -34 -3 -64 -10 -66 -16 -2 -6 -22 -11 -44 -11 -22 0 -46 -7
-54 -15 -9 -8 -29 -15 -45 -15 -16 0 -29 -4 -29 -10 0 -5 -11 -10 -24 -10 -14
0 -31 -7 -40 -15 -8 -8 -26 -15 -40 -15 -14 0 -26 -4 -26 -10 0 -5 -11 -12
-25 -16 -14 -3 -25 -10 -25 -14 0 -4 -11 -11 -25 -14 -14 -4 -25 -11 -25 -16
0 -6 -7 -10 -15 -10 -8 0 -15 -4 -15 -9 0 -5 -11 -12 -25 -15 -14 -4 -25 -11
-25 -16 0 -6 -7 -10 -15 -10 -8 0 -15 -4 -15 -10 0 -5 -11 -12 -25 -16 -14 -3
-25 -12 -25 -20 0 -8 -7 -14 -15 -14 -8 0 -15 -4 -15 -10 0 -5 -5 -10 -10 -10
-14 0 -25 -9 -120 -103 -44 -43 -80 -85 -80 -92 0 -8 -7 -15 -15 -15 -8 0 -15
-5 -15 -11 0 -6 -15 -25 -34 -42 -18 -18 -36 -42 -40 -54 -4 -13 -12 -23 -17
-23 -5 0 -9 -7 -9 -15 0 -8 -4 -15 -9 -15 -5 0 -12 -11 -15 -25 -4 -14 -11
-25 -16 -25 -6 0 -10 -7 -10 -15 0 -8 -4 -15 -10 -15 -5 0 -12 -11 -16 -25 -3
-14 -10 -25 -14 -25 -5 0 -11 -13 -15 -30 -4 -17 -11 -30 -16 -30 -5 0 -9 -9
-9 -21 0 -11 -7 -27 -15 -35 -8 -9 -15 -26 -15 -40 0 -13 -4 -24 -10 -24 -5 0
-10 -13 -10 -29 0 -16 -7 -36 -15 -45 -8 -8 -15 -30 -15 -49 0 -20 -5 -37 -11
-39 -6 -2 -14 -27 -17 -56 -2 -29 -8 -52 -12 -52 -4 0 -10 -35 -12 -77 -2 -48
-8 -78 -16 -81 -19 -6 -16 -380 3 -406 10 -13 15 -43 15 -83 0 -35 4 -63 9
-63 5 0 11 -23 13 -52 3 -29 11 -54 17 -56 6 -2 11 -19 11 -39 0 -19 7 -41 15
-49 8 -9 15 -29 15 -45 0 -16 5 -29 10 -29 6 0 10 -9 10 -21 0 -11 7 -27 15
-35 8 -9 15 -26 15 -40 0 -13 4 -24 9 -24 5 0 12 -13 16 -30 4 -16 11 -30 16
-30 5 0 9 -7 9 -15 0 -8 4 -15 10 -15 5 0 12 -11 16 -25 3 -14 10 -25 14 -25
4 0 11 -11 14 -25 4 -14 11 -25 16 -25 6 0 10 -7 10 -15 0 -8 7 -15 15 -15 8
0 15 -9 15 -20 0 -11 16 -36 35 -54 19 -19 35 -39 35 -45 0 -6 7 -11 15 -11 8
0 15 -7 15 -15 0 -8 4 -15 10 -15 5 0 12 -11 16 -25 3 -14 11 -25 16 -25 5 0
23 -12 38 -27 45 -43 58 -53 70 -53 5 0 10 -7 10 -15 0 -8 5 -15 11 -15 6 0
25 -15 42 -34 18 -18 42 -36 55 -40 12 -4 22 -12 22 -17 0 -5 7 -9 15 -9 8 0
15 -4 15 -10 0 -5 11 -12 25 -16 14 -3 25 -10 25 -14 0 -4 11 -11 25 -14 14
-4 25 -11 25 -16 0 -6 7 -10 15 -10 8 0 15 -4 15 -9 0 -5 14 -12 30 -16 17 -4
30 -11 30 -16 0 -5 11 -9 24 -9 14 0 31 -7 40 -15 8 -8 26 -15 40 -15 14 0 26
-4 26 -9 0 -5 18 -12 40 -16 22 -4 40 -11 40 -16 0 -5 17 -9 38 -9 20 -1 48
-7 62 -15 14 -8 49 -14 78 -15 28 0 52 -4 52 -10 0 -6 77 -10 210 -10 133 0
210 4 210 10 0 6 23 10 50 10 28 0 67 7 87 15 19 8 51 15 69 15 19 0 34 4 34
10 0 5 18 13 40 16 22 4 40 10 40 15 0 5 13 9 29 9 16 0 36 7 45 15 8 8 24 15
35 15 12 0 21 4 21 9 0 5 11 12 25 15 14 4 25 11 25 16 0 6 11 10 24 10 13 0
26 7 30 15 3 8 12 15 21 15 8 0 15 5 15 10 0 6 9 10 20 10 11 0 23 7 26 15 4
8 10 15 16 15 5 0 16 6 23 12 33 30 45 38 55 38 5 0 10 7 10 15 0 8 7 15 15
15 8 0 15 4 15 9 0 5 9 13 21 16 23 8 189 171 189 186 0 6 11 20 25 33 14 13
25 28 25 35 0 6 7 11 15 11 8 0 15 9 15 20 0 12 11 31 25 44 14 13 25 33 25
45 0 12 6 21 15 21 8 0 15 7 15 15 0 8 4 15 9 15 5 0 12 11 15 25 4 14 11 25
16 25 6 0 10 9 10 21 0 11 7 27 15 35 8 9 15 24 15 35 0 10 5 19 10 19 6 0 10
11 10 24 0 14 7 31 15 40 8 8 15 26 15 39 0 14 5 27 11 29 6 2 13 25 16 51 3
26 10 47 14 47 5 0 9 17 9 38 0 20 7 46 15 56 10 13 15 43 15 82 0 34 5 64 10
66 7 2 11 79 11 223 0 144 -4 221 -11 223 -5 2 -10 30 -10 62 0 31 -7 74 -15
93 -8 20 -15 52 -15 72 0 19 -4 35 -9 35 -5 0 -11 18 -15 40 -3 22 -11 40 -16
40 -6 0 -10 18 -10 40 0 29 -4 40 -15 40 -9 0 -15 9 -15 25 0 14 -4 25 -10 25
-5 0 -10 11 -10 25 0 14 -7 28 -15 31 -8 4 -15 17 -15 30 0 13 -4 24 -10 24
-5 0 -12 11 -16 25 -3 14 -10 25 -14 25 -4 0 -11 11 -14 25 -4 14 -11 25 -16
25 -6 0 -10 7 -10 15 0 8 -4 15 -10 15 -5 0 -12 11 -16 25 -3 14 -10 25 -15
25 -5 0 -9 7 -9 15 0 8 -7 15 -15 15 -8 0 -15 5 -15 11 0 7 -11 22 -25 35 -14
13 -25 28 -25 34 0 13 -167 180 -180 180 -6 0 -10 4 -10 10 0 5 -11 12 -25 16
-14 3 -25 11 -25 16 0 13 -26 38 -39 38 -6 0 -11 7 -11 15 0 9 -9 15 -25 15
-14 0 -25 5 -25 10 0 6 -7 10 -15 10 -8 0 -15 7 -15 15 0 9 -9 15 -24 15 -13
0 -26 7 -30 15 -3 8 -15 15 -26 15 -11 0 -20 4 -20 9 0 5 -13 12 -30 16 -16 4
-30 11 -30 16 0 5 -11 9 -25 9 -14 0 -25 4 -25 10 0 5 -18 13 -40 16 -22 4
-40 10 -40 15 0 5 -10 9 -22 9 -13 0 -32 7 -42 15 -11 8 -37 15 -57 15 -21 0
-39 4 -41 10 -1 5 -31 13 -65 16 -35 4 -63 11 -63 15 0 5 -29 9 -65 9 l-65 0
0 40 0 40 80 0 c44 0 80 -4 80 -9 0 -4 35 -11 78 -15 42 -3 79 -11 80 -16 2
-6 26 -10 53 -10 27 0 49 -4 49 -10 0 -5 18 -13 40 -16 22 -4 40 -10 40 -15 0
-5 13 -9 29 -9 16 0 36 -7 45 -15 8 -8 23 -15 33 -15 10 0 27 -7 37 -15 11 -8
30 -15 43 -15 13 0 23 -4 23 -10 0 -5 7 -10 15 -10 8 0 15 -7 15 -15 0 -9 9
-15 25 -15 14 0 25 -4 25 -10 0 -5 11 -12 25 -16 14 -3 25 -10 25 -15 0 -5 7
-9 15 -9 8 0 15 -4 15 -9 0 -5 10 -13 23 -17 12 -4 31 -17 43 -29 11 -13 31
-26 42 -30 12 -3 22 -11 22 -16 0 -5 7 -9 15 -9 8 0 15 -5 15 -11 0 -14 25
-39 39 -39 6 0 11 -7 11 -15 0 -8 5 -15 11 -15 6 0 17 -6 25 -14 8 -8 14 -19
14 -25 0 -6 7 -11 15 -11 8 0 15 -7 15 -15 0 -8 5 -15 11 -15 6 0 17 -6 25
-14 8 -8 14 -19 14 -25 0 -6 7 -11 15 -11 8 0 15 -5 15 -11 0 -6 6 -17 13 -24
26 -30 37 -44 37 -50 0 -3 11 -16 24 -28 13 -12 26 -32 30 -44 4 -13 12 -23
17 -23 5 0 9 -7 9 -15 0 -8 4 -15 10 -15 5 0 12 -11 16 -25 3 -14 10 -25 14
-25 4 0 11 -11 14 -25 4 -14 11 -25 16 -25 6 0 10 -13 10 -30 0 -16 4 -30 10
-30 5 0 12 -11 16 -25 3 -14 10 -25 15 -25 5 0 9 -11 9 -24 0 -13 7 -26 15
-30 9 -3 15 -19 15 -41 0 -19 4 -35 10 -35 5 0 13 -18 16 -40 4 -22 10 -40 15
-40 5 0 9 -18 9 -39 0 -22 5 -41 12 -43 6 -2 13 -31 16 -64 3 -32 9 -62 15
-65 5 -4 10 -91 11 -215 1 -153 5 -209 14 -212 8 -2 12 -28 12 -77 0 -46 4
-75 11 -77 8 -3 14 -61 17 -181 5 -171 4 -179 -16 -197 -12 -11 -30 -20 -42
-20 -11 0 -20 -4 -20 -9 0 -5 -11 -12 -25 -15 -14 -4 -25 -11 -25 -16 0 -6 -5
-10 -10 -10 -6 0 -21 -11 -34 -25 -13 -14 -28 -25 -35 -25 -6 0 -11 -5 -11
-11 0 -7 -11 -22 -25 -35 -14 -13 -25 -28 -25 -34 0 -5 -4 -10 -10 -10 -5 0
-10 -9 -10 -20 0 -11 -7 -23 -15 -26 -10 -4 -15 -20 -15 -44 0 -22 -5 -40 -12
-43 -10 -3 -13 -36 -13 -122 0 -86 3 -119 13 -123 7 -2 12 -20 12 -42 0 -24 5
-40 15 -44 8 -3 15 -17 15 -31 0 -14 5 -25 10 -25 6 0 10 -7 10 -15 0 -8 7
-15 15 -15 8 0 15 -5 15 -11 0 -14 25 -39 39 -39 6 0 11 -7 11 -15 0 -8 5 -15
11 -15 7 0 22 -11 35 -25 13 -14 32 -25 44 -25 11 0 20 -4 20 -10 0 -5 11 -12
25 -16 14 -3 25 -10 25 -15 0 -5 65 -9 145 -9 80 0 145 4 145 9 0 5 11 12 25
15 14 4 25 11 25 16 0 6 9 10 20 10 12 0 31 11 44 25 13 14 28 25 35 25 6 0
11 7 11 15 0 8 5 15 11 15 11 0 39 25 39 35 0 3 11 16 25 29 14 13 25 33 25
44 0 11 7 27 15 36 8 8 15 28 15 44 0 17 6 32 13 35 9 3 12 36 12 122 0 86 -3
119 -12 123 -8 2 -13 20 -13 42 0 24 -5 40 -15 44 -8 3 -15 15 -15 26 0 11 -4
20 -10 20 -5 0 -10 5 -10 10 0 13 -117 130 -130 130 -5 0 -10 4 -10 10 0 5
-11 12 -25 16 -14 3 -25 10 -25 15 0 5 -11 9 -24 9 -13 0 -26 5 -28 12 -2 6
-31 13 -66 16 -44 3 -62 8 -62 18 0 8 -4 14 -10 14 -5 0 -12 23 -16 50 -4 28
-10 50 -14 50 -4 0 -11 61 -15 135 -4 74 -11 135 -16 135 -5 0 -9 27 -9 60 0
57 1 60 25 60 14 0 25 -4 25 -10 0 -5 7 -10 15 -10 19 0 19 9 0 34 -19 26 -19
66 1 94 14 21 14 22 -10 22 -14 0 -26 -4 -26 -10 0 -5 -7 -10 -15 -10 -11 0
-15 12 -15 44 0 24 -7 63 -15 86 -9 25 -15 77 -15 126 0 46 -4 84 -9 84 -4 0
-11 28 -15 63 -3 34 -11 64 -16 65 -6 2 -10 22 -10 44 0 22 -7 46 -15 54 -8 9
-15 29 -15 45 0 16 -4 29 -10 29 -5 0 -10 11 -10 24 0 14 -7 31 -15 40 -8 8
-15 26 -15 40 0 14 -4 26 -10 26 -5 0 -12 11 -16 25 -3 14 -10 25 -15 25 -5 0
-9 11 -9 24 0 13 -7 26 -15 30 -8 3 -15 15 -15 26 0 11 -4 20 -9 20 -5 0 -12
11 -15 25 -4 14 -11 25 -16 25 -6 0 -10 7 -10 16 0 8 -6 22 -12 29 -26 29 -34
40 -41 58 -3 9 -11 17 -17 17 -5 0 -10 7 -10 15 0 9 -11 26 -25 39 -14 13 -25
28 -25 35 0 6 -7 11 -15 11 -8 0 -15 5 -15 10 0 12 -10 25 -52 70 -16 15 -28
33 -28 39 0 6 -5 11 -11 11 -14 0 -39 25 -39 39 0 6 -7 11 -15 11 -8 0 -15 4
-15 10 0 5 -11 12 -25 16 -14 3 -25 11 -25 16 0 6 -11 21 -25 34 -16 15 -25
34 -25 54 0 25 4 30 25 30 24 0 25 2 25 65 0 51 -3 65 -15 65 -8 0 -15 7 -15
15 0 9 -9 15 -25 15 -14 0 -25 5 -25 10 0 6 -7 10 -15 10 -8 0 -15 7 -15 15 0
9 -9 15 -25 15 -16 0 -25 6 -25 15 0 8 -4 15 -10 15 -5 0 -10 5 -10 10 0 6 12
10 28 10 57 0 72 10 72 46 0 19 -4 34 -9 34 -5 0 -12 11 -15 25 -4 15 -16 27
-31 31 -14 3 -25 10 -25 15 0 5 -22 9 -50 9 -27 0 -50 -4 -50 -10 0 -5 -11
-10 -25 -10 -14 0 -28 -7 -31 -15 -4 -10 -20 -15 -45 -15 -21 0 -39 -4 -39
-10 0 -5 -11 -10 -25 -10 -14 0 -25 5 -25 10 0 6 -18 10 -40 10 -22 0 -40 4
-40 10 0 5 -18 13 -40 16 -22 4 -40 10 -40 15 0 5 -22 9 -50 9 -47 0 -50 -2
-50 -25 0 -14 5 -25 10 -25 6 0 10 -7 10 -15 0 -10 10 -15 30 -15 31 0 37 -13
21 -39 -8 -12 -12 -12 -26 2 -21 22 -75 23 -75 2 0 -8 -5 -15 -11 -15 -6 0
-17 -7 -26 -15 -11 -11 -25 -14 -51 -9 -21 4 -38 11 -40 15 -2 5 -21 9 -43 9
l-39 0 0 49 c0 34 4 51 15 55 8 3 15 10 15 16 0 5 -7 10 -15 10 -8 0 -15 7
-15 15 0 8 -7 15 -15 15 -8 0 -15 5 -15 10 0 6 -9 10 -20 10 -11 0 -20 -4 -20
-10 0 -5 -7 -10 -15 -10 -8 0 -17 -11 -21 -25 -4 -16 -13 -25 -25 -25 -14 0
-19 7 -19 25 0 14 5 25 10 25 6 0 10 33 10 80 0 79 0 80 25 80 14 0 25 5 25
10 0 6 7 10 15 10 10 0 15 10 15 30 0 20 -5 30 -15 30 -8 0 -15 9 -15 20 0 13
-9 22 -25 26 -14 3 -25 10 -25 15 0 5 -18 9 -40 9 -22 0 -40 -4 -40 -10z m630
-470 c0 -5 18 -13 40 -16 22 -4 40 -10 40 -15 0 -5 11 -9 25 -9 13 0 35 -5 49
-11 19 -9 36 -9 71 1 41 11 50 11 85 -6 22 -10 40 -22 40 -26 0 -5 9 -8 20 -8
11 0 23 -7 26 -15 4 -8 12 -15 20 -15 17 0 18 -16 1 -27 -21 -13 -39 -65 -27
-77 5 -5 10 -20 10 -33 0 -18 6 -23 25 -23 14 0 25 -4 25 -10 0 -5 -11 -10
-25 -10 -14 0 -25 5 -25 10 0 6 -7 10 -15 10 -8 0 -15 4 -15 10 0 5 -11 12
-25 16 -14 3 -25 10 -25 15 0 5 -7 9 -15 9 -8 0 -15 4 -15 10 0 5 -11 12 -25
16 -14 3 -25 10 -25 14 0 4 -11 11 -25 14 -14 4 -25 11 -25 16 0 6 -12 10 -26
10 -14 0 -32 7 -40 15 -9 8 -26 15 -40 15 -13 0 -24 4 -24 9 0 5 -12 12 -26
15 -31 8 -49 24 -58 53 -4 12 -17 23 -28 25 -41 6 -32 28 11 28 23 0 41 -4 41
-10z m160 -190 c0 -5 -4 -10 -10 -10 -5 0 -10 5 -10 10 0 6 5 10 10 10 6 0 10
-4 10 -10z m58 -22 c-3 -7 -11 -13 -18 -13 -7 0 -15 6 -17 13 -3 7 4 12 17 12
13 0 20 -5 18 -12z m52 -28 c0 -5 11 -12 25 -16 14 -3 25 -10 25 -15 0 -5 7
-9 15 -9 8 0 15 -4 15 -10 0 -5 -7 -10 -15 -10 -8 0 -15 5 -15 10 0 6 -11 10
-25 10 -16 0 -25 6 -25 15 0 9 -9 15 -25 15 -14 0 -25 5 -25 10 0 6 11 10 25
10 14 0 25 -4 25 -10z m-1110 -25 c0 -8 4 -15 9 -15 5 0 11 7 15 15 4 11 22
15 71 15 51 0 65 -3 65 -15 0 -9 9 -15 25 -15 14 0 25 -4 25 -10 0 -5 11 -10
25 -10 14 0 25 5 25 10 0 6 7 10 15 10 8 0 15 7 15 15 0 8 5 15 10 15 6 0 13
-7 16 -15 8 -20 24 -19 24 1 0 14 9 16 52 12 29 -3 54 -11 56 -17 2 -6 28 -11
63 -11 63 0 99 -19 99 -52 0 -10 5 -18 10 -18 6 0 10 5 10 10 0 6 17 10 38 10
37 0 79 -21 95 -47 5 -8 17 -11 31 -7 14 3 29 -1 39 -10 8 -9 24 -16 35 -16
13 0 22 -9 26 -25 5 -18 13 -25 30 -25 14 0 31 -7 40 -15 8 -8 21 -15 28 -15
20 0 38 -21 38 -42 0 -15 5 -17 25 -12 19 5 25 2 25 -10 0 -9 7 -16 15 -16 8
0 15 -4 15 -10 0 -5 11 -12 25 -16 18 -4 25 -13 25 -30 0 -19 5 -24 25 -24 16
0 25 -6 25 -15 0 -8 5 -15 11 -15 17 0 39 -27 39 -50 0 -11 8 -24 18 -27 19
-8 42 -28 42 -38 0 -10 28 -35 39 -35 6 0 11 -9 11 -20 0 -12 11 -31 25 -44
14 -13 25 -26 25 -30 0 -4 7 -14 15 -22 8 -9 15 -29 15 -45 0 -16 5 -29 11
-29 19 0 39 -28 39 -54 0 -16 6 -26 15 -26 9 0 15 -9 15 -25 0 -16 -6 -25 -15
-25 -27 0 -16 -19 13 -22 19 -2 28 -9 30 -25 2 -13 8 -23 13 -23 5 0 9 -20 9
-45 0 -33 4 -45 15 -45 11 0 15 -11 15 -40 0 -22 5 -40 10 -40 6 0 10 -11 10
-25 0 -14 -4 -25 -10 -25 -5 0 -10 -5 -10 -11 0 -14 25 -39 39 -39 16 0 14
-107 -1 -114 -10 -5 -10 -7 0 -12 7 -3 12 -26 12 -59 0 -33 5 -56 13 -59 7 -4
8 -8 2 -11 -30 -16 -40 -27 -27 -32 6 -2 12 -11 12 -19 0 -8 5 -14 10 -14 6 0
10 -7 10 -15 0 -8 -4 -15 -10 -15 -5 0 -10 -18 -10 -39 0 -22 -6 -42 -12 -45
-10 -5 -10 -7 0 -12 19 -9 17 -134 -3 -134 -12 0 -15 -14 -15 -66 0 -58 -3
-70 -25 -90 -14 -13 -21 -26 -15 -29 13 -8 13 -55 0 -55 -5 0 -10 -12 -10 -26
0 -26 -20 -54 -39 -54 -15 0 -14 -27 2 -34 10 -5 10 -7 0 -12 -7 -3 -13 -16
-13 -29 0 -12 -7 -25 -15 -29 -8 -3 -15 -14 -15 -25 0 -10 -7 -21 -15 -25 -8
-3 -15 -17 -15 -31 0 -14 -4 -25 -10 -25 -5 0 -10 -7 -10 -15 0 -8 -4 -15 -10
-15 -5 0 -12 -11 -16 -25 -4 -18 -13 -25 -30 -25 -21 0 -24 -4 -24 -40 0 -29
-4 -40 -15 -40 -8 0 -15 -5 -15 -11 0 -14 -25 -39 -39 -39 -6 0 -11 -7 -11
-15 0 -8 -4 -15 -10 -15 -5 0 -12 -11 -16 -25 -3 -14 -12 -25 -20 -25 -8 0
-14 -4 -14 -10 0 -5 -11 -12 -25 -16 -18 -4 -25 -13 -25 -30 0 -15 -6 -24 -15
-24 -9 0 -26 -11 -39 -25 -13 -14 -32 -25 -44 -25 -13 0 -22 -9 -26 -25 -4
-15 -16 -27 -31 -31 -14 -3 -25 -10 -25 -15 0 -5 -6 -9 -14 -9 -8 0 -16 -6
-19 -12 -3 -10 -7 -10 -19 -1 -17 15 -28 8 -28 -18 0 -11 -10 -21 -25 -25 -14
-3 -25 -10 -25 -15 0 -5 -6 -9 -14 -9 -8 0 -17 -6 -20 -12 -5 -10 -7 -10 -12
0 -10 21 -34 13 -34 -12 0 -20 -6 -24 -40 -30 -22 -3 -40 -11 -40 -16 0 -6
-18 -10 -40 -10 -29 0 -40 -4 -40 -15 0 -11 -11 -15 -39 -15 -22 0 -42 -6 -45
-12 -5 -10 -7 -10 -12 0 -6 13 -34 17 -34 4 0 -9 -90 -42 -114 -42 -9 0 -16 7
-16 15 0 8 -7 15 -15 15 -8 0 -15 -7 -15 -15 0 -20 -125 -22 -134 -2 -5 10 -7
10 -12 0 -4 -9 -29 -13 -74 -13 -45 0 -70 4 -74 13 -5 10 -7 10 -12 0 -8 -18
-75 -16 -98 2 -12 9 -42 15 -73 15 -29 0 -53 5 -53 10 0 6 -11 10 -25 10 -16
0 -25 6 -25 15 0 11 -12 15 -50 15 -27 0 -50 4 -50 9 0 5 -13 12 -30 16 -16 4
-30 11 -30 16 0 5 -11 9 -25 9 -16 0 -25 6 -25 15 0 9 -10 15 -26 15 -26 0
-54 20 -54 39 0 6 -13 11 -29 11 -16 0 -34 7 -41 15 -7 8 -17 15 -22 15 -13 0
-38 26 -38 39 0 6 -9 11 -20 11 -12 0 -31 11 -44 25 -13 14 -28 25 -35 25 -6
0 -11 5 -11 11 0 14 -55 69 -69 69 -6 0 -11 7 -11 15 0 8 -7 15 -15 15 -8 0
-15 4 -15 9 0 5 -22 32 -50 61 -27 29 -50 56 -50 60 0 5 -6 11 -12 14 -10 5
-10 7 0 12 21 10 13 24 -13 24 -16 0 -25 6 -25 15 0 8 -4 15 -10 15 -5 0 -12
11 -16 25 -3 14 -10 25 -15 25 -5 0 -9 14 -9 30 0 20 -5 30 -15 30 -8 0 -15 7
-15 15 0 8 -4 15 -10 15 -5 0 -12 11 -16 25 -3 14 -10 25 -15 25 -5 0 -9 11
-9 25 0 14 5 25 10 25 20 0 9 19 -12 22 -16 2 -24 11 -27 28 -1 14 -8 28 -14
32 -6 4 -11 23 -10 42 1 25 -3 36 -13 36 -9 0 -14 12 -14 36 0 19 -7 42 -15
50 -19 20 -19 44 0 44 8 0 15 5 15 10 0 6 -7 10 -15 10 -10 0 -15 10 -15 30 0
17 -4 30 -10 30 -5 0 -10 18 -10 40 0 29 4 40 15 40 8 0 15 5 15 10 0 6 -6 10
-14 10 -30 0 -37 122 -8 139 15 9 15 12 2 20 -11 8 -15 29 -15 81 0 52 4 74
15 81 11 8 12 12 3 16 -17 6 -17 110 -1 115 8 3 12 22 10 56 -1 34 3 55 13 66
8 8 15 24 15 35 0 12 4 21 9 21 5 0 11 23 13 52 3 29 11 54 17 56 6 2 11 10
11 18 0 8 10 14 25 14 14 0 25 5 25 10 0 6 -4 10 -10 10 -5 0 -10 18 -10 40 0
22 4 40 9 40 5 0 12 11 15 25 4 14 10 25 14 25 4 0 13 4 21 9 12 8 12 12 2 25
-11 13 -11 17 3 22 9 3 16 12 16 20 0 8 4 14 9 14 5 0 12 11 15 25 4 16 13 25
26 25 14 0 20 7 20 24 0 14 7 31 15 40 8 8 15 19 15 25 0 6 7 11 15 11 8 0 15
7 15 15 0 18 27 20 33 3 2 -8 8 -9 13 -4 5 5 4 11 -3 13 -15 5 -17 33 -3 33 6
0 10 6 10 13 1 23 38 57 69 63 18 4 31 13 31 22 0 22 65 82 90 82 14 0 20 6
20 24 0 17 7 26 25 30 14 4 25 11 25 16 0 6 7 10 15 10 8 0 15 5 15 10 0 6 7
10 15 10 8 0 15 -4 15 -10 0 -5 5 -10 10 -10 6 0 10 11 10 25 0 16 6 25 15 25
8 0 15 4 15 10 0 5 12 13 28 16 15 4 30 12 35 18 5 8 10 6 17 -4 9 -13 11 -13
20 0 5 8 10 21 10 28 0 6 10 12 23 12 13 0 32 7 43 15 25 19 64 19 64 0 0 -8
5 -15 10 -15 6 0 10 11 10 24 0 19 7 26 30 31 17 4 30 11 30 16 0 14 47 11 54
-3 5 -10 7 -10 12 0 3 6 19 12 35 12 16 0 29 4 29 9 0 10 22 18 58 20 13 1 22
-5 22 -14z m1230 -55 c0 -5 -4 -10 -10 -10 -5 0 -10 5 -10 10 0 6 5 10 10 10
6 0 10 -4 10 -10z m720 -1095 c0 -14 -4 -25 -10 -25 -5 0 -10 11 -10 25 0 14
5 25 10 25 6 0 10 -11 10 -25z m20 -145 c0 -53 -4 -90 -10 -90 -6 0 -10 37
-10 90 0 53 4 90 10 90 6 0 10 -37 10 -90z m30 -210 c0 -5 -4 -10 -10 -10 -5
0 -10 5 -10 10 0 6 5 10 10 10 6 0 10 -4 10 -10z m220 -770 c11 -11 20 -29 20
-40 0 -24 15 -27 24 -4 4 11 13 13 28 8 13 -3 25 -11 26 -15 2 -5 10 -9 18 -9
8 0 14 -7 14 -15 0 -8 5 -15 10 -15 6 0 10 -11 10 -25 0 -16 -6 -25 -15 -25
-8 0 -15 -4 -15 -10 0 -5 7 -10 15 -10 8 0 15 5 15 10 0 6 11 10 24 10 17 0
26 -7 30 -25 4 -14 11 -25 16 -25 6 0 10 -11 10 -25 0 -18 -7 -26 -25 -31 -14
-3 -25 -10 -25 -15 0 -5 -7 -9 -15 -9 -8 0 -15 -4 -15 -10 0 -5 7 -10 15 -10
8 0 15 5 15 10 0 6 16 10 35 10 40 0 48 -18 43 -91 -3 -39 -6 -44 -27 -44 -13
0 -26 -6 -28 -12 -3 -8 5 -13 20 -13 29 0 46 -39 22 -53 -8 -4 -15 -19 -15
-32 0 -20 -5 -25 -25 -25 -14 0 -25 -4 -25 -10 0 -5 7 -10 15 -10 8 0 15 -6
15 -14 0 -8 -7 -21 -15 -30 -8 -8 -15 -19 -15 -25 0 -6 -7 -11 -15 -11 -8 0
-15 -7 -15 -15 0 -9 -9 -15 -25 -15 -16 0 -25 6 -25 15 0 8 -7 15 -15 15 -8 0
-15 -7 -15 -15 0 -8 7 -15 15 -15 9 0 15 -9 15 -25 0 -19 -5 -25 -21 -25 -12
0 -27 -7 -33 -15 -15 -20 -56 -8 -56 16 0 11 -4 19 -10 19 -5 0 -10 -16 -10
-35 l0 -35 -70 0 c-56 0 -70 3 -70 15 0 8 -4 15 -10 15 -5 0 -10 -7 -10 -15 0
-9 -9 -15 -25 -15 -14 0 -25 5 -25 10 0 6 -7 10 -15 10 -11 0 -15 11 -15 40 0
22 -4 40 -10 40 -5 0 -10 -11 -10 -25 0 -21 -5 -25 -30 -25 -16 0 -30 5 -30
11 0 14 -25 39 -39 39 -6 0 -11 14 -11 30 0 17 5 30 10 30 6 0 10 5 10 10 0
14 -27 12 -34 -2 -5 -10 -7 -10 -12 0 -3 6 -12 12 -20 12 -8 0 -14 7 -14 15 0
8 -4 15 -10 15 -5 0 -10 11 -10 25 0 16 6 25 15 25 8 0 15 7 15 15 0 10 -10
15 -30 15 l-30 0 0 65 0 65 30 0 c17 0 30 4 30 9 0 5 -13 12 -30 16 -23 5 -30
12 -30 31 0 15 6 24 15 24 9 0 15 9 15 25 0 20 5 25 25 25 28 0 34 15 9 24
-21 8 -9 42 27 78 32 32 56 36 75 11 13 -17 13 -17 14 0 0 9 -4 17 -10 17 -5
0 -10 11 -10 25 0 18 7 26 25 31 14 3 25 10 25 15 0 17 22 9 51 -20 16 -16 29
-39 29 -50 0 -12 6 -21 15 -21 11 0 15 -11 15 -40 0 -22 5 -40 10 -40 6 0 10
-18 10 -40 0 -22 -4 -40 -10 -40 -5 0 -10 -13 -10 -30 0 -19 -5 -30 -14 -30
-11 0 -15 -13 -14 -50 1 -45 4 -50 25 -50 18 0 23 -5 23 -25 0 -15 6 -25 14
-25 8 0 16 -12 18 -27 3 -28 28 -45 28 -19 0 9 4 16 9 16 5 0 12 12 15 26 4
14 18 37 31 50 28 28 32 52 10 60 -20 8 -19 24 1 24 23 0 11 24 -14 28 -13 2
-24 13 -28 28 -3 13 -10 24 -15 24 -5 0 -9 47 -9 105 0 58 4 105 9 105 5 0 11
18 15 40 6 36 9 40 36 40 17 0 39 -9 50 -20z"/>
<path d="M2120 3039 c0 -22 51 -79 70 -79 8 0 10 -9 6 -25 -5 -18 -2 -25 9
-25 11 0 15 10 15 35 0 31 -3 35 -25 35 -16 0 -25 6 -25 15 0 8 -7 15 -16 15
-12 0 -15 6 -10 25 5 18 2 25 -9 25 -9 0 -15 -9 -15 -21z"/>
<path d="M2194 3044 c3 -9 6 -20 6 -25 0 -5 5 -9 10 -9 6 0 10 11 10 25 0 16
-6 25 -16 25 -11 0 -14 -5 -10 -16z"/>
<path d="M2280 2985 c0 -43 4 -75 10 -75 6 0 10 32 10 75 0 43 -4 75 -10 75
-6 0 -10 -32 -10 -75z"/>
<path d="M1960 3010 c0 -16 4 -30 10 -30 5 0 13 -18 16 -40 9 -58 24 -49 24
15 0 30 -4 55 -10 55 -5 0 -10 7 -10 15 0 8 -7 15 -15 15 -10 0 -15 -10 -15
-30z"/>
<path d="M1860 3020 c0 -5 5 -10 10 -10 6 0 10 -11 10 -25 0 -16 6 -25 15 -25
10 0 15 -10 15 -30 0 -16 5 -30 10 -30 6 0 10 18 10 40 0 22 -4 40 -9 40 -5 0
-12 11 -15 25 -6 24 -46 37 -46 15z"/>
<path d="M2354 3007 c-8 -36 -1 -100 14 -105 8 -3 12 12 12 52 0 31 5 56 10
56 6 0 10 5 10 10 0 21 -40 10 -46 -13z"/>
<path d="M2440 3020 c0 -5 5 -10 10 -10 6 0 10 -7 10 -15 0 -8 5 -15 10 -15
15 0 12 19 -4 36 -17 16 -26 18 -26 4z"/>
<path d="M1800 2970 c0 -22 4 -40 10 -40 5 0 12 -11 16 -25 3 -14 13 -25 21
-25 10 0 12 6 7 23 -3 12 -11 24 -15 25 -5 2 -9 21 -9 43 0 28 -4 39 -15 39
-11 0 -15 -11 -15 -40z"/>
<path d="M2540 2996 c0 -8 -5 -16 -11 -18 -6 -2 -13 -25 -16 -51 -5 -39 -3
-47 11 -47 10 0 16 9 16 25 0 16 6 25 15 25 16 0 19 20 9 58 -7 24 -24 30 -24
8z"/>
<path d="M2620 2955 c0 -20 -5 -25 -25 -25 -22 0 -25 -4 -25 -40 0 -36 3 -40
25 -40 21 0 25 5 25 30 0 17 5 30 10 30 6 0 10 16 10 35 0 19 -4 35 -10 35 -5
0 -10 -11 -10 -25z"/>
<path d="M1608 2953 c-22 -5 -24 -23 -3 -23 9 0 15 -9 15 -25 0 -14 4 -25 9
-25 5 0 12 -11 15 -25 6 -24 46 -37 46 -15 0 6 -4 10 -10 10 -5 0 -10 11 -10
25 0 16 -6 25 -15 25 -10 0 -15 10 -15 30 0 17 -3 29 -7 29 -5 -1 -16 -3 -25
-6z"/>
<path d="M2120 2935 c0 -16 6 -25 16 -25 11 0 14 5 10 16 -3 9 -6 20 -6 25 0
5 -4 9 -10 9 -5 0 -10 -11 -10 -25z"/>
<path d="M2437 2953 c-4 -3 -7 -17 -7 -30 0 -12 -4 -23 -10 -23 -5 0 -10 -4
-10 -10 0 -5 5 -10 11 -10 19 0 39 28 39 54 0 25 -10 33 -23 19z"/>
<path d="M1510 2896 c0 -9 7 -16 16 -16 9 0 14 5 12 12 -6 18 -28 21 -28 4z"/>
<path d="M1880 2890 c0 -5 5 -10 10 -10 6 0 10 5 10 10 0 6 -4 10 -10 10 -5 0
-10 -4 -10 -10z"/>
<path d="M2763 2885 c-7 -8 -13 -23 -13 -34 0 -10 -7 -22 -16 -25 -18 -7 -15
-47 4 -54 8 -2 12 7 12 27 0 17 4 31 10 31 5 0 12 11 16 25 3 14 12 25 20 25
8 0 14 5 14 10 0 15 -33 11 -47 -5z"/>
<path d="M1436 2873 c-11 -12 -6 -41 9 -47 8 -3 15 -12 15 -21 0 -8 4 -15 9
-15 5 0 13 -9 16 -20 7 -21 55 -29 55 -10 0 6 -7 10 -15 10 -8 0 -15 7 -15 15
0 8 -7 15 -15 15 -8 0 -15 7 -15 15 0 8 -4 15 -10 15 -5 0 -10 9 -10 19 0 21
-13 34 -24 24z"/>
<path d="M2856 2871 c-8 -12 3 -41 15 -41 5 0 9 11 9 25 0 25 -14 34 -24 16z"/>
<path d="M1562 2798 c5 -32 28 -35 28 -4 0 17 -5 26 -16 26 -10 0 -14 -7 -12
-22z"/>
<path d="M2910 2801 c0 -10 -7 -21 -15 -25 -8 -3 -15 -12 -15 -21 0 -8 -4 -15
-10 -15 -5 0 -10 -11 -10 -25 0 -14 5 -25 10 -25 6 0 10 11 10 25 0 16 6 25
15 25 8 0 15 7 15 15 0 8 5 15 10 15 6 0 10 7 10 15 0 8 7 15 15 15 8 0 15 5
15 10 0 6 -11 10 -25 10 -18 0 -25 -5 -25 -19z"/>
<path d="M1327 2793 c-13 -12 -7 -44 8 -49 8 -4 15 -14 15 -23 0 -9 9 -24 20
-34 22 -19 60 -23 60 -7 0 6 -7 10 -15 10 -8 0 -15 7 -15 15 0 8 -4 15 -10 15
-5 0 -10 7 -10 15 0 8 -7 15 -15 15 -9 0 -15 9 -15 25 0 24 -10 32 -23 18z"/>
<path d="M2770 2760 c0 -5 14 -10 30 -10 17 0 30 5 30 10 0 6 -13 10 -30 10
-16 0 -30 -4 -30 -10z"/>
<path d="M2990 2755 c0 -8 -7 -15 -15 -15 -8 0 -15 -9 -15 -19 0 -10 -7 -21
-15 -25 -8 -3 -15 -10 -15 -16 0 -5 7 -10 15 -10 8 0 15 5 15 10 0 6 7 10 15
10 8 0 15 7 15 15 0 8 5 15 10 15 6 0 10 11 10 25 0 14 -4 25 -10 25 -5 0 -10
-7 -10 -15z"/>
<path d="M1250 2730 c0 -5 -7 -10 -15 -10 -8 0 -15 -5 -15 -10 0 -18 89 -102
100 -95 15 9 12 25 -5 25 -8 0 -15 7 -15 15 0 8 -5 15 -11 15 -14 0 -39 25
-39 39 0 6 5 11 10 11 6 0 10 5 10 10 0 6 -4 10 -10 10 -5 0 -10 -4 -10 -10z"/>
<path d="M3070 2705 c0 -8 -5 -15 -11 -15 -6 0 -24 -13 -40 -29 -29 -30 -37
-51 -19 -51 6 0 13 7 16 15 11 28 24 15 24 -25 0 -44 16 -52 45 -24 12 12 19
14 27 6 8 -8 7 -13 -5 -18 -9 -3 -17 -12 -17 -20 0 -8 -4 -14 -10 -14 -5 0
-10 -4 -10 -10 0 -21 20 -12 65 28 7 6 18 12 24 12 6 0 11 4 11 9 0 5 3 16 6
25 5 12 -5 16 -52 18 -35 2 -59 8 -62 16 -2 6 3 12 12 12 12 0 16 10 16 40 0
22 -4 40 -10 40 -5 0 -10 -7 -10 -15z"/>
<path d="M2910 2650 c0 -5 5 -10 10 -10 6 0 10 5 10 10 0 6 -4 10 -10 10 -5 0
-10 -4 -10 -10z"/>
<path d="M1140 2631 c0 -4 11 -17 25 -27 14 -10 25 -24 25 -31 0 -7 7 -13 15
-13 8 0 15 -4 15 -10 0 -5 11 -10 25 -10 14 0 25 5 25 10 0 6 -5 10 -10 10
-12 0 -25 10 -70 53 -28 27 -50 35 -50 18z"/>
<path d="M1090 2555 c0 -14 74 -75 90 -75 10 0 20 -6 23 -12 2 -7 8 -10 12 -6
9 8 -48 68 -64 68 -6 0 -11 7 -11 15 0 9 -9 15 -25 15 -14 0 -25 -2 -25 -5z"/>
<path d="M3185 2535 c-11 -13 -25 -24 -31 -25 -12 0 -54 -34 -54 -44 0 -3 9
-6 20 -6 11 0 20 5 20 10 0 6 7 10 15 10 8 0 15 7 15 15 0 8 5 15 11 15 14 0
39 25 39 39 0 18 -14 12 -35 -14z"/>
<path d="M3230 2520 c0 -5 5 -10 10 -10 6 0 10 5 10 10 0 6 -4 10 -10 10 -5 0
-10 -4 -10 -10z"/>
<path d="M1040 2470 c0 -5 5 -10 10 -10 6 0 10 -7 10 -15 0 -9 9 -15 24 -15
13 0 26 -7 30 -15 3 -8 15 -15 26 -15 11 0 20 7 20 15 0 8 -7 15 -15 15 -9 0
-26 11 -39 25 -23 25 -66 34 -66 15z"/>
<path d="M3250 2470 c0 -5 -11 -12 -25 -16 -36 -9 -31 -24 9 -24 22 0 36 6 40
16 10 25 7 34 -9 34 -8 0 -15 -4 -15 -10z"/>
<path d="M980 2390 c0 -5 11 -10 25 -10 14 0 25 5 25 10 0 6 -11 10 -25 10
-14 0 -25 -4 -25 -10z"/>
<path d="M1393 2373 c-17 -6 -16 -41 1 -59 9 -8 35 -14 65 -14 39 0 51 -4 51
-15 0 -8 7 -15 15 -15 11 0 15 -11 15 -40 0 -22 5 -40 10 -40 6 0 10 -68 10
-185 0 -117 -4 -185 -10 -185 -6 0 -10 -60 -10 -160 0 -100 4 -160 10 -160 6
0 10 -37 10 -90 0 -53 -4 -90 -10 -90 -5 0 -10 -15 -10 -33 0 -44 -29 -67 -84
-67 -58 0 -76 -8 -76 -32 0 -45 16 -48 235 -48 166 0 209 3 221 14 16 17 19
36 4 36 -5 0 -10 7 -10 15 0 11 -12 15 -50 15 -57 0 -90 21 -90 57 0 13 -4 23
-10 23 -6 0 -10 40 -10 99 0 81 3 100 16 105 9 3 67 6 130 6 95 0 114 -3 114
-15 0 -8 7 -15 15 -15 9 0 15 -10 15 -26 0 -14 7 -32 15 -40 8 -9 15 -26 15
-40 0 -13 5 -24 10 -24 6 0 10 -11 10 -24 0 -13 7 -26 15 -30 8 -3 15 -17 15
-31 0 -14 4 -25 9 -25 5 0 12 -11 15 -25 4 -14 11 -25 16 -25 6 0 10 -11 10
-25 0 -22 4 -25 40 -25 34 0 40 3 40 21 0 11 7 27 15 35 8 9 15 24 15 35 0 10
5 19 10 19 6 0 10 11 10 24 0 14 7 31 15 40 8 8 15 24 15 35 0 12 4 21 9 21 5
0 12 14 16 30 4 17 11 30 16 30 5 0 9 11 9 25 0 16 6 25 15 25 8 0 15 7 15 15
0 12 17 15 95 15 l95 0 0 139 c0 117 2 140 16 145 27 10 134 7 134 -5 0 -6 7
-17 15 -25 8 -9 15 -29 15 -45 0 -16 4 -29 9 -29 11 0 22 -66 14 -86 -3 -8
-15 -14 -27 -14 -28 0 -56 -19 -38 -27 6 -2 12 -11 12 -19 0 -12 26 -14 158
-12 l157 3 3 28 c3 23 0 27 -22 27 -14 0 -26 5 -26 10 0 6 -7 10 -15 10 -8 0
-15 7 -15 15 0 8 -7 15 -15 15 -9 0 -15 9 -15 25 0 14 -4 25 -9 25 -5 0 -12
14 -16 30 -4 17 -11 30 -16 30 -5 0 -9 16 -9 35 0 24 -5 35 -15 35 -10 0 -15
10 -15 30 0 17 -4 30 -10 30 -5 0 -10 11 -10 24 0 14 -7 31 -15 40 -8 8 -15
26 -15 40 0 14 -4 26 -10 26 -5 0 -12 11 -16 25 -3 14 -10 25 -15 25 -5 0 -9
13 -9 29 0 16 -7 36 -15 45 -8 8 -15 24 -15 35 0 12 -4 21 -10 21 -5 0 -13 18
-16 40 -4 22 -10 40 -15 40 -5 0 -9 11 -9 24 0 13 -7 26 -15 30 -8 3 -15 15
-15 26 0 11 -4 20 -9 20 -11 0 -21 -25 -21 -51 0 -10 -4 -19 -10 -19 -5 0 -10
-11 -10 -24 0 -13 -7 -26 -15 -30 -8 -3 -15 -17 -15 -31 0 -14 -4 -25 -9 -25
-5 0 -12 -11 -15 -25 -4 -14 -11 -25 -16 -25 -6 0 -10 -12 -10 -26 0 -14 -7
-32 -15 -40 -8 -9 -15 -26 -15 -40 0 -13 -4 -24 -9 -24 -5 0 -12 -11 -15 -25
-4 -14 -11 -25 -16 -25 -6 0 -10 -13 -10 -30 0 -16 -4 -30 -10 -30 -5 0 -12
-11 -16 -25 -3 -14 -10 -25 -14 -25 -4 0 -11 -11 -14 -25 l-6 -25 -140 0 c-87
0 -140 4 -140 10 0 6 -7 10 -15 10 -9 0 -15 9 -15 25 0 14 -4 25 -9 25 -5 0
-12 14 -16 30 -4 17 -11 30 -16 30 -5 0 -9 11 -9 24 0 13 -7 26 -15 30 -8 3
-15 17 -15 31 0 14 -4 25 -10 25 -5 0 -10 9 -10 20 0 11 -7 23 -15 26 -9 4
-15 19 -15 39 0 20 -6 35 -15 39 -8 3 -15 17 -15 31 0 14 -4 25 -9 25 -5 0
-12 11 -15 25 -4 14 -11 25 -16 25 -6 0 -10 11 -10 25 0 14 -4 25 -9 25 -5 0
-12 14 -16 30 l-7 30 -181 -1 c-100 0 -188 -3 -194 -6z m307 -363 c11 -11 20
-33 20 -50 0 -20 5 -30 15 -30 9 0 15 -9 15 -25 0 -14 4 -25 9 -25 12 0 22
-45 15 -64 -8 -20 -70 -21 -90 -2 -10 11 -14 41 -14 115 0 56 2 101 5 101 3 0
14 -9 25 -20z m890 -24 c0 -13 7 -26 15 -30 9 -3 15 -19 15 -41 l0 -35 -55 0
c-52 0 -55 2 -55 24 0 14 7 31 15 40 8 8 15 26 15 40 0 21 5 26 25 26 20 0 25
-5 25 -24z"/>
<path d="M3253 2373 c-57 -4 -61 -7 -39 -29 17 -16 36 -19 36 -4 0 6 11 10 25
10 14 0 25 -4 25 -10 0 -5 -4 -10 -10 -10 -5 0 -10 -7 -10 -15 0 -8 -7 -15
-15 -15 -8 0 -15 -6 -15 -14 0 -8 -6 -16 -12 -19 -8 -2 -9 -8 -4 -13 5 -5 11
-4 13 4 3 6 11 12 19 12 8 0 14 5 14 11 0 14 25 39 39 39 6 0 11 14 11 30 0
18 -5 29 -12 28 -7 -1 -37 -3 -65 -5z"/>
<path d="M1090 2334 c0 -17 22 -14 28 4 2 7 -3 12 -12 12 -9 0 -16 -7 -16 -16z"/>
<path d="M957 2323 c-12 -11 -8 -23 8 -23 8 0 15 -7 15 -15 0 -9 9 -15 25 -15
14 0 25 -4 25 -10 0 -5 14 -10 30 -10 17 0 30 5 30 10 0 6 -11 10 -25 10 -16
0 -25 6 -25 15 0 9 -9 15 -24 15 -13 0 -26 7 -30 15 -6 16 -18 19 -29 8z"/>
<path d="M910 2215 c0 -20 5 -24 23 -22 17 2 23 -4 25 -25 3 -26 22 -41 22
-18 0 5 18 13 40 16 22 4 40 10 40 15 0 5 -18 9 -40 9 -22 0 -40 5 -40 11 0
17 -27 39 -49 39 -16 0 -21 -6 -21 -25z"/>
<path d="M3330 2230 c0 -5 -11 -10 -25 -10 -16 0 -25 -6 -25 -15 0 -8 -7 -15
-15 -15 -8 0 -15 -4 -15 -10 0 -5 11 -10 25 -10 14 0 25 5 25 10 0 6 7 10 15
10 24 0 18 -39 -10 -64 -34 -31 -32 -36 15 -36 22 0 40 5 40 10 0 6 9 10 19
10 11 0 26 3 35 6 29 11 16 24 -24 24 -36 0 -40 3 -40 25 0 16 6 25 15 25 8 0
15 4 15 9 0 5 3 16 6 25 5 13 -1 16 -25 16 -17 0 -31 -4 -31 -10z"/>
<path d="M880 2125 c0 -9 9 -15 24 -15 13 0 26 -4 28 -9 5 -15 71 -18 75 -3 3
7 -5 12 -22 12 -14 0 -33 7 -41 15 -9 8 -26 15 -40 15 -15 0 -24 -6 -24 -15z"/>
<path d="M3410 2045 c0 -8 -5 -15 -11 -15 -14 0 -39 -25 -39 -39 0 -6 -11 -11
-25 -11 -14 0 -25 -4 -25 -10 0 -5 18 -10 39 -10 22 0 46 -6 53 -14 22 -22 58
-30 58 -13 0 8 -11 18 -25 21 -32 8 -39 62 -9 79 18 11 18 27 -1 27 -8 0 -15
-7 -15 -15z"/>
<path d="M960 2020 c0 -5 -17 -10 -38 -10 -25 0 -45 -7 -55 -18 -21 -23 -22
-42 -2 -42 8 0 15 -4 15 -10 0 -5 7 -10 15 -10 8 0 15 -7 15 -15 0 -9 9 -15
25 -15 14 0 25 -4 25 -10 0 -5 5 -10 10 -10 6 0 10 5 10 11 0 14 -25 39 -39
39 -6 0 -11 5 -11 10 0 6 -7 10 -15 10 -8 0 -15 7 -15 15 0 10 11 15 35 15 22
0 43 8 55 20 26 26 25 30 -5 30 -14 0 -25 -4 -25 -10z"/>
<path d="M900 1795 c0 -14 -4 -25 -9 -25 -5 0 -11 -10 -15 -22 -4 -18 -20 -27
-71 -43 -36 -11 -65 -25 -65 -32 0 -7 5 -13 11 -13 14 0 48 -41 49 -57 0 -7 5
-13 10 -13 6 0 10 -9 10 -20 0 -11 -4 -20 -10 -20 -5 0 -10 -16 -10 -35 0 -33
2 -35 36 -35 19 0 42 7 50 15 9 8 22 15 29 15 7 0 20 -7 29 -15 8 -8 31 -15
50 -15 32 0 36 3 36 25 0 14 -4 25 -10 25 -5 0 -10 12 -10 26 0 26 20 54 39
54 6 0 11 7 11 15 0 8 7 15 15 15 8 0 15 7 15 15 0 8 5 15 10 15 6 0 10 5 10
10 0 6 -21 10 -46 10 -37 0 -51 5 -73 28 -16 15 -32 39 -36 52 -16 50 -55 68
-55 25z"/>
<path d="M3410 1810 c0 -5 -7 -10 -15 -10 -9 0 -15 -9 -15 -25 0 -14 -4 -25
-10 -25 -5 0 -10 -6 -10 -13 0 -13 -84 -47 -119 -47 -11 0 -21 -3 -21 -8 0
-10 38 -42 50 -42 6 0 10 -5 10 -11 0 -6 6 -17 14 -25 11 -10 13 -29 9 -69
l-6 -55 42 0 c30 0 41 4 41 15 0 9 9 15 25 15 14 0 28 -7 31 -15 4 -10 20 -15
46 -15 l39 0 -6 54 c-7 53 -6 54 34 94 23 22 41 45 41 51 0 6 -18 11 -39 11
-22 0 -46 7 -55 15 -8 8 -19 15 -25 15 -6 0 -11 11 -11 25 0 14 -4 25 -9 25
-5 0 -12 11 -15 25 -6 24 -26 36 -26 15z"/>
<path d="M980 1415 c0 -9 -9 -15 -25 -15 -20 0 -25 -5 -25 -25 0 -14 -4 -25
-10 -25 -5 0 -10 5 -10 10 0 6 -13 10 -30 10 -29 0 -30 -2 -30 -46 0 -27 6
-51 15 -60 8 -9 15 -24 15 -35 0 -10 5 -19 10 -19 6 0 10 6 10 14 0 8 11 17
25 20 14 4 25 11 25 16 0 6 18 10 39 10 26 0 41 5 45 16 11 29 6 34 -39 34
-33 0 -45 4 -45 15 0 8 7 15 15 15 8 0 15 5 15 10 0 6 7 10 15 10 10 0 15 10
15 30 0 20 -5 30 -15 30 -8 0 -15 -7 -15 -15z m-80 -80 c0 -8 -4 -15 -10 -15
-5 0 -10 7 -10 15 0 8 5 15 10 15 6 0 10 -7 10 -15z"/>
<path d="M2430 1375 c0 -14 -4 -25 -10 -25 -5 0 -10 -7 -10 -15 0 -11 -11 -15
-40 -15 -22 0 -40 -5 -40 -11 0 -6 -7 -17 -15 -25 -16 -16 -20 -51 -9 -78 8
-21 149 -23 158 -3 5 10 7 10 12 0 7 -16 194 -18 194 -3 0 6 7 10 15 10 10 0
15 10 15 29 0 16 -7 36 -15 45 -8 8 -15 24 -15 35 0 12 -4 21 -10 21 -5 0 -10
-4 -10 -10 0 -5 -7 -10 -15 -10 -11 0 -15 -11 -15 -37 0 -53 -13 -71 -34 -50
-19 19 -21 34 -4 39 8 3 4 12 -10 26 -26 26 -82 30 -82 7 0 -8 -7 -15 -15 -15
-10 0 -15 -11 -15 -35 0 -36 -13 -47 -24 -19 -11 27 -7 54 9 60 9 4 15 19 15
40 0 19 5 34 10 34 6 0 10 7 10 15 0 9 -9 15 -25 15 -20 0 -25 -5 -25 -25z
m-50 -120 c0 -8 -7 -15 -15 -15 -8 0 -15 7 -15 15 0 8 7 15 15 15 8 0 15 -7
15 -15z"/>
<path d="M3343 1385 c-7 -8 -13 -37 -13 -65 l0 -50 40 0 c36 0 40 -2 40 -25 0
-28 15 -34 24 -9 10 25 7 34 -9 34 -9 0 -15 9 -15 25 0 16 6 25 15 25 8 0 15
-7 15 -15 0 -8 5 -15 10 -15 6 0 10 6 10 14 0 8 4 16 9 18 4 2 12 13 15 26 6
16 3 22 -8 22 -9 0 -16 -4 -16 -10 0 -5 -16 -10 -35 -10 -29 0 -36 4 -41 25
-7 28 -23 32 -41 10z m37 -60 c0 -14 -4 -25 -10 -25 -5 0 -10 11 -10 25 0 14
5 25 10 25 6 0 10 -11 10 -25z"/>
<path d="M2780 1360 c0 -5 -7 -10 -15 -10 -11 0 -15 -11 -15 -40 0 -29 -4 -40
-15 -40 -11 0 -15 -11 -15 -40 0 -38 2 -40 30 -40 31 0 41 -16 15 -26 -8 -4
-15 -17 -15 -30 0 -15 6 -24 15 -24 8 0 15 -7 15 -15 0 -23 62 -19 83 5 9 11
17 25 17 30 0 6 7 10 15 10 8 0 15 4 15 9 0 5 11 12 25 15 14 4 25 11 25 16 0
6 4 10 10 10 19 0 50 35 50 57 0 13 5 23 10 23 6 0 10 -18 10 -40 l0 -40 40 0
c36 0 40 3 40 25 0 16 -6 25 -15 25 -10 0 -15 8 -14 23 5 54 2 57 -51 57 -46
0 -50 -2 -50 -24 0 -13 -7 -29 -15 -36 -8 -7 -15 -25 -15 -41 0 -24 -4 -29
-25 -29 -14 0 -25 5 -25 10 0 6 5 10 10 10 6 0 10 14 10 30 0 20 5 30 15 30 9
0 15 9 15 25 0 23 -3 25 -50 25 -27 0 -50 -4 -50 -10 0 -5 -6 -10 -13 -10 -6
0 -18 -13 -25 -30 -17 -37 -42 -40 -42 -5 0 14 5 25 10 25 6 0 10 18 10 40 0
22 -4 40 -10 40 -5 0 -10 -4 -10 -10z m100 -105 c0 -8 -4 -15 -10 -15 -5 0
-10 7 -10 15 0 8 5 15 10 15 6 0 10 -7 10 -15z m-50 -56 c0 -5 -7 -9 -15 -9
-15 0 -20 12 -9 23 8 8 24 -1 24 -14z m-13 -76 c-3 -10 -5 -4 -5 12 0 17 2 24
5 18 2 -7 2 -21 0 -30z"/>
<path d="M980 1205 c0 -8 -7 -15 -15 -15 -8 0 -15 -5 -15 -10 0 -6 7 -13 15
-16 8 -4 15 -17 15 -30 0 -15 -6 -24 -15 -24 -8 0 -15 5 -15 10 0 6 -4 10 -10
10 -15 0 -12 -39 4 -56 21 -21 33 -17 40 11 5 18 13 25 31 25 16 0 25 6 25 15
0 8 5 15 10 15 6 0 10 7 10 15 0 8 -4 15 -10 15 -5 0 -12 11 -16 25 -4 18 -13
25 -30 25 -15 0 -24 -6 -24 -15z m30 -30 c0 -8 -7 -15 -15 -15 -8 0 -15 7 -15
15 0 8 7 15 15 15 8 0 15 -7 15 -15z"/>
<path d="M3307 1213 c-13 -12 -7 -44 8 -49 8 -4 15 -10 15 -15 0 -5 -7 -9 -15
-9 -8 0 -15 5 -15 10 0 6 -4 10 -10 10 -5 0 -10 -11 -10 -25 0 -20 5 -25 24
-25 13 0 26 -4 28 -9 2 -4 13 -12 26 -15 16 -6 22 -3 22 8 0 9 -4 16 -10 16
-5 0 -10 18 -10 40 0 29 -4 40 -15 40 -8 0 -15 7 -15 15 0 16 -12 20 -23 8z"/>
<path d="M910 1165 c0 -14 5 -25 10 -25 6 0 10 11 10 25 0 14 -4 25 -10 25 -5
0 -10 -11 -10 -25z"/>
<path d="M3380 1150 c0 -5 7 -10 15 -10 8 0 15 5 15 10 0 6 -7 10 -15 10 -8 0
-15 -4 -15 -10z"/>
<path d="M3213 1065 c-7 -8 -13 -17 -13 -20 0 -4 -7 -13 -15 -21 -27 -28 -18
-44 25 -44 22 0 40 5 40 10 0 6 7 10 15 10 8 0 15 -4 15 -10 0 -5 -7 -10 -15
-10 -8 0 -15 -7 -15 -15 0 -8 5 -15 10 -15 6 0 10 -9 10 -19 0 -26 10 -51 21
-51 5 0 9 16 9 35 0 24 5 35 15 35 8 0 15 7 15 15 0 9 9 15 25 15 14 0 25 4
25 9 0 11 -25 21 -56 21 -13 0 -24 5 -24 10 0 6 -11 10 -25 10 -20 0 -25 5
-25 25 0 27 -18 32 -37 10z"/>
<path d="M1060 1045 c0 -8 -5 -15 -10 -15 -10 0 -22 -8 -55 -37 -7 -7 -25 -13
-39 -13 -16 0 -26 -6 -26 -15 0 -8 6 -15 14 -15 8 0 17 -6 20 -12 5 -10 7 -10
12 0 7 14 34 16 34 2 0 -5 16 -10 36 -10 26 0 43 8 65 29 29 30 37 51 19 51
-5 0 -12 11 -16 25 -4 18 -13 25 -30 25 -15 0 -24 -6 -24 -15z m60 -50 c0 -8
-7 -15 -15 -15 -8 0 -15 -7 -15 -15 0 -10 -10 -15 -30 -15 -34 0 -40 19 -14
44 20 21 74 21 74 1z"/>
<path d="M3133 935 c-7 -8 -13 -18 -13 -24 0 -5 6 -11 13 -14 7 -2 8 -8 3 -13
-5 -5 -11 -4 -13 4 -6 17 -33 15 -33 -3 0 -8 -4 -15 -10 -15 -5 0 -10 -4 -10
-10 0 -15 77 -12 83 3 2 7 8 8 13 3 5 -5 4 -11 -3 -13 -23 -8 -14 -33 12 -33
20 0 25 -5 25 -25 0 -16 -6 -25 -15 -25 -8 0 -15 -7 -15 -15 0 -8 6 -15 14
-15 8 0 17 -6 20 -12 5 -10 7 -10 12 0 3 6 12 12 20 12 10 0 14 12 14 40 0 29
-4 40 -15 40 -8 0 -15 5 -15 11 0 7 -11 22 -25 35 -16 15 -25 34 -25 54 0 32
-16 39 -37 15z"/>
<path d="M1156 915 c-8 -8 -19 -15 -25 -15 -6 0 -11 -7 -11 -15 0 -8 -7 -15
-15 -15 -9 0 -15 -9 -15 -25 0 -14 5 -25 10 -25 6 0 10 5 10 10 0 6 7 10 15
10 8 0 15 -9 15 -20 0 -11 5 -20 10 -20 6 0 10 5 10 10 0 6 5 10 10 10 13 0
50 37 50 51 0 12 -43 1 -48 -12 -4 -11 -32 -12 -32 -1 1 13 27 42 39 42 6 0
11 7 11 15 0 8 -4 15 -9 15 -5 0 -16 -7 -25 -15z"/>
<path d="M3010 801 c-43 -48 -43 -49 -24 -68 12 -13 19 -14 22 -5 5 17 32 15
32 -3 0 -8 7 -15 15 -15 9 0 15 -9 15 -25 0 -14 5 -25 10 -25 6 0 10 7 10 15
0 8 7 15 15 15 8 0 15 5 15 10 0 6 -6 10 -14 10 -7 0 -25 11 -39 24 -20 19
-23 25 -12 30 8 3 15 17 15 31 0 20 -5 25 -22 24 -13 0 -30 -8 -38 -18z"/>
<path d="M1220 775 c0 -35 50 -85 84 -85 16 0 26 6 26 14 0 19 -62 82 -89 91
-18 5 -21 2 -21 -20z"/>
<path d="M1120 780 c0 -5 5 -10 10 -10 6 0 10 5 10 10 0 6 -4 10 -10 10 -5 0
-10 -4 -10 -10z"/>
<path d="M1415 717 c-11 -13 -35 -32 -52 -42 -18 -11 -33 -23 -33 -27 0 -4 -7
-8 -15 -8 -8 0 -15 -7 -15 -15 0 -9 9 -15 25 -15 14 0 25 5 25 10 0 6 7 10 15
10 8 0 15 -9 15 -20 0 -11 -7 -23 -15 -26 -8 -4 -15 -10 -15 -15 0 -5 7 -9 15
-9 8 0 15 -7 15 -15 0 -18 19 -20 21 -2 1 6 3 30 4 52 1 21 7 41 14 43 6 2 11
15 11 28 0 15 6 24 15 24 9 0 15 9 15 25 0 31 -19 32 -45 2z m-15 -67 c0 -5
-4 -10 -10 -10 -5 0 -10 5 -10 10 0 6 5 10 10 10 6 0 10 -4 10 -10z"/>
<path d="M2910 700 c0 -5 -7 -10 -15 -10 -8 0 -15 -6 -15 -14 0 -8 -6 -17 -12
-20 -10 -5 -10 -7 0 -12 6 -3 12 -19 12 -35 0 -19 5 -29 15 -29 8 0 15 -4 15
-10 0 -5 11 -10 25 -10 14 0 25 5 25 10 0 6 7 10 15 10 8 0 15 7 15 15 0 8 5
15 10 15 6 0 10 7 10 16 0 10 -7 14 -22 12 -17 -2 -24 -11 -26 -31 -3 -24 -7
-27 -25 -21 -27 8 -23 3 -30 42 -6 30 -5 32 23 32 20 0 30 5 30 15 0 8 -7 15
-15 15 -8 0 -15 5 -15 10 0 6 -4 10 -10 10 -5 0 -10 -4 -10 -10z"/>
<path d="M1486 590 c-3 -22 -11 -40 -16 -40 -15 0 -12 -39 4 -56 27 -26 86 -9
86 25 0 6 -4 11 -10 11 -5 0 -10 -7 -10 -15 0 -20 -24 -19 -44 1 -20 20 -20
34 -1 34 8 0 15 9 15 21 0 17 4 19 23 13 12 -3 24 -11 25 -15 5 -12 32 -11 32
1 0 6 -7 10 -15 10 -8 0 -15 5 -15 11 0 17 -27 39 -48 39 -15 0 -21 -9 -26
-40z"/>
<path d="M2521 574 c-1 -6 -14 -14 -31 -17 -31 -7 -42 -27 -15 -27 11 0 15
-12 15 -50 0 -27 4 -50 9 -50 5 0 11 -14 15 -31 8 -39 26 -28 26 17 0 19 5 34
10 34 6 0 10 18 10 40 0 22 -4 40 -8 40 -5 0 -13 12 -19 28 -6 15 -11 22 -12
16z m19 -84 c0 -29 -4 -40 -15 -40 -11 0 -15 11 -15 40 0 29 4 40 15 40 11 0
15 -11 15 -40z"/>
<path d="M2670 555 c0 -16 6 -25 15 -25 8 0 15 -7 15 -15 0 -9 -9 -15 -25 -15
-20 0 -25 -5 -25 -25 0 -14 5 -25 10 -25 6 0 10 7 10 15 0 9 9 15 25 15 20 0
25 5 25 25 0 14 -4 25 -9 25 -5 0 -12 11 -15 25 -4 14 -11 25 -16 25 -6 0 -10
-11 -10 -25z"/>
<path d="M1620 545 c0 -8 5 -15 10 -15 6 0 10 -11 10 -25 0 -14 -4 -25 -10
-25 -5 0 -10 -7 -10 -15 0 -8 -7 -15 -15 -15 -20 0 -19 -6 5 -30 27 -27 30
-26 30 20 0 36 3 40 25 40 14 0 25 5 25 10 0 6 7 10 15 10 8 0 15 7 15 15 0 8
-5 15 -11 15 -6 0 -17 7 -25 15 -9 8 -26 15 -40 15 -15 0 -24 -6 -24 -15z"/>
<path d="M1910 520 c0 -14 45 -23 75 -16 42 11 28 26 -25 26 -27 0 -50 -4 -50
-10z"/>
<path d="M2620 520 c0 -5 5 -10 10 -10 6 0 10 5 10 10 0 6 -4 10 -10 10 -5 0
-10 -4 -10 -10z"/>
<path d="M1423 485 c-20 -22 -15 -35 12 -35 20 0 25 5 25 25 0 27 -18 32 -37
10z"/>
<path d="M1910 440 c0 -29 -4 -40 -15 -40 -8 0 -15 -7 -15 -15 0 -8 -7 -15
-15 -15 -9 0 -15 -9 -15 -25 0 -16 6 -25 15 -25 8 0 15 5 15 10 0 6 11 10 25
10 14 0 25 -4 25 -10 0 -5 7 -10 15 -10 8 0 15 -7 15 -16 0 -11 6 -14 23 -8
31 9 34 14 17 24 -10 6 -16 33 -18 84 -5 87 -22 104 -22 21 0 -57 -9 -66 -40
-44 -11 8 -12 12 -2 16 14 6 17 83 2 83 -5 0 -10 -18 -10 -40z"/>
<path d="M2350 466 c0 -8 -6 -16 -12 -19 -8 -2 -9 -8 -4 -13 5 -5 11 -4 13 4
6 17 33 15 33 -3 0 -8 -4 -15 -10 -15 -5 0 -10 -4 -10 -10 0 -5 12 -10 26 -10
23 0 25 -3 20 -25 -6 -23 -3 -25 24 -25 33 0 38 13 15 36 -8 9 -15 30 -15 49
0 35 -13 45 -56 45 -14 0 -24 -6 -24 -14z"/>
<path d="M2727 474 c-8 -8 1 -24 14 -24 5 0 9 7 9 15 0 15 -12 20 -23 9z"/>
<path d="M1780 415 c0 -19 5 -35 10 -35 6 0 10 16 10 35 0 19 -4 35 -10 35 -5
0 -10 -16 -10 -35z"/>
<path d="M2060 440 c0 -5 7 -10 15 -10 9 0 15 -9 15 -21 0 -18 -4 -20 -25 -15
-14 4 -25 2 -25 -4 0 -5 5 -10 10 -10 6 0 10 -7 10 -15 0 -8 -4 -15 -10 -15
-5 0 -10 -7 -10 -15 0 -8 5 -15 10 -15 6 0 10 5 10 10 0 6 7 10 15 10 8 0 15
7 15 15 0 8 7 15 15 15 8 0 15 7 15 15 0 8 5 15 10 15 6 0 10 11 10 25 0 26
-24 35 -34 13 -5 -10 -7 -10 -12 0 -7 14 -34 16 -34 2z"/>
<path d="M2200 435 c0 -11 7 -14 25 -9 27 7 35 -12 14 -33 -9 -9 -5 -14 15
-19 32 -8 34 -20 4 -28 -34 -9 -38 -8 -38 9 0 8 -4 15 -10 15 -5 0 -10 -11
-10 -25 0 -22 4 -25 40 -25 28 0 40 4 40 14 0 8 6 17 13 20 10 5 10 7 0 12 -7
3 -13 23 -13 45 0 39 0 39 -40 39 -29 0 -40 -4 -40 -15z"/>
<path d="M2570 410 c0 -5 5 -10 10 -10 6 0 10 5 10 10 0 6 -4 10 -10 10 -5 0
-10 -4 -10 -10z"/>
<path d="M2330 370 c0 -11 5 -20 10 -20 6 0 10 9 10 20 0 11 -4 20 -10 20 -5
0 -10 -9 -10 -20z"/>
<path d="M2117 343 c-12 -11 -8 -23 8 -23 8 0 15 7 15 15 0 16 -12 20 -23 8z"/>
<path d="M4150 730 c0 -5 5 -10 10 -10 6 0 10 5 10 10 0 6 -4 10 -10 10 -5 0
-10 -4 -10 -10z"/>
<path d="M3890 704 c0 -14 31 -34 52 -33 17 1 18 3 6 6 -10 2 -18 11 -18 19 0
8 -9 14 -20 14 -11 0 -20 -3 -20 -6z"/>
<path d="M4120 700 c0 -5 7 -10 15 -10 8 0 15 5 15 10 0 6 -7 10 -15 10 -8 0
-15 -4 -15 -10z"/>
<path d="M4280 650 c0 -5 5 -10 10 -10 6 0 10 5 10 10 0 6 -4 10 -10 10 -5 0
-10 -4 -10 -10z"/>
<path d="M4180 600 c0 -5 16 -10 35 -10 19 0 35 5 35 10 0 6 -16 10 -35 10
-19 0 -35 -4 -35 -10z"/>
<path d="M3860 570 c0 -5 11 -10 25 -10 14 0 25 5 25 10 0 6 -11 10 -25 10
-14 0 -25 -4 -25 -10z"/>
<path d="M4310 570 c0 -5 11 -10 25 -10 14 0 25 5 25 10 0 6 -11 10 -25 10
-14 0 -25 -4 -25 -10z"/>
<path d="M4150 490 c0 -5 5 -10 10 -10 6 0 10 5 10 10 0 6 -4 10 -10 10 -5 0
-10 -4 -10 -10z"/>
<path d="M3940 466 c0 -9 -7 -16 -15 -16 -8 0 -15 -4 -15 -10 0 -5 11 -10 25
-10 16 0 25 6 25 15 0 8 0 18 1 22 0 4 -4 9 -10 11 -6 2 -11 -3 -11 -12z"/>
<path d="M4180 465 c0 -8 5 -15 10 -15 6 0 10 7 10 15 0 8 -4 15 -10 15 -5 0
-10 -7 -10 -15z"/>
<path d="M4070 390 c0 -5 5 -10 10 -10 6 0 10 5 10 10 0 6 -4 10 -10 10 -5 0
-10 -4 -10 -10z"/>
</g>
</svg>
